<svg xmlns="http://www.w3.org/2000/svg" version="1.1" xmlns:xlink="http://www.w3.org/1999/xlink" xmlns:svgjs="http://svgjs.dev/svgjs" viewBox="0 0 3.769272226859968 0.7048290315575905"><g transform="matrix(1,0,0,1,0.12615451577879533,0.12615451577879527)"><rect width="3.769272226859968" height="3.769272226859968" x="-0.12615451577879533" y="-1.6583761134299841" fill="#ffffff"></rect><g><path d=" M 0.41795249999999995 0.33436199999999994 Q 0.41795249999999995 0.3745859999999999 0.39626924999999996 0.3997259999999999 Q 0.374586 0.4248659999999999 0.33813299999999996 0.4368074999999999 Q 0.30167999999999995 0.4487489999999999 0.257685 0.4487489999999999 L 0.0383385 0.4487489999999999 L 0.0383385 0.0025139999999999607 L 0.29728049999999995 0.0025139999999999607 Q 0.3287055 0.0025139999999999607 0.35164575 0.019169249999999916 Q 0.374586 0.035824499999999926 0.38684175 0.06222149999999993 Q 0.39909749999999994 0.08861849999999993 0.39909749999999994 0.11690099999999992 Q 0.39909749999999994 0.14769749999999993 0.38307074999999996 0.17660849999999995 Q 0.367044 0.2055194999999999 0.33499049999999997 0.21997499999999992 Q 0.37332899999999997 0.2312879999999999 0.39564075 0.2595704999999999 Q 0.41795249999999995 0.2878529999999999 0.41795249999999995 0.33436199999999994 M 0.2935095 0.3092219999999999 Q 0.2935095 0.2979089999999999 0.28942425 0.28942424999999994 Q 0.28533899999999995 0.2809394999999999 0.2784255 0.2759114999999999 Q 0.271512 0.27088349999999994 0.2620845 0.27088349999999994 L 0.16089599999999998 0.27088349999999994 L 0.16089599999999998 0.3456749999999999 L 0.257685 0.3456749999999999 Q 0.26774099999999995 0.3456749999999999 0.2759115 0.3412754999999999 Q 0.28408199999999995 0.3368759999999999 0.28879574999999996 0.32870549999999993 Q 0.2935095 0.3205349999999999 0.2935095 0.3092219999999999 M 0.16089599999999998 0.10684499999999991 L 0.16089599999999998 0.17535149999999994 L 0.24448649999999997 0.17535149999999994 Q 0.25265699999999996 0.17535149999999994 0.26019899999999996 0.1725232499999999 Q 0.26774099999999995 0.16969499999999993 0.272769 0.16215299999999994 Q 0.27779699999999996 0.15461099999999994 0.27779699999999996 0.1407839999999999 Q 0.27779699999999996 0.12821399999999994 0.27371175 0.1209862499999999 Q 0.2696265 0.11375849999999993 0.26302725 0.11030174999999992 Q 0.256428 0.10684499999999991 0.24825749999999996 0.10684499999999991 L 0.16089599999999998 0.10684499999999991 M 0.6724965344238281 0.4525199999999999 Q 0.621588034423828 0.4525199999999999 0.580107034423828 0.4333507499999999 Q 0.5386260344238281 0.4141814999999999 0.508772284423828 0.3818137499999999 Q 0.4789185344238281 0.3494459999999999 0.4628917844238281 0.3089077499999999 Q 0.4468650344238281 0.2683694999999999 0.4468650344238281 0.22500299999999993 Q 0.4468650344238281 0.18037949999999991 0.4638345344238281 0.14015549999999993 Q 0.4808040344238281 0.09993149999999995 0.5112862844238281 0.06819224999999995 Q 0.5417685344238281 0.03645299999999996 0.5835637844238281 0.018226499999999923 Q 0.6253590344238281 -5.551115123125783e-17 0.6750105344238281 -5.551115123125783e-17 Q 0.725919034423828 -5.551115123125783e-17 0.7674000344238281 0.019169249999999916 Q 0.8088810344238281 0.03833849999999994 0.838420534423828 0.07102049999999993 Q 0.8679600344238281 0.10370249999999992 0.883986784423828 0.14424074999999992 Q 0.900013534423828 0.18477899999999992 0.900013534423828 0.2275169999999999 Q 0.900013534423828 0.2715119999999999 0.8833582844238281 0.3117359999999999 Q 0.866703034423828 0.35195999999999994 0.8362207844238281 0.38369924999999994 Q 0.805738534423828 0.4154384999999999 0.764257534423828 0.4339792499999999 Q 0.722776534423828 0.4525199999999999 0.6724965344238281 0.4525199999999999 M 0.571308034423828 0.22625999999999993 Q 0.571308034423828 0.2488859999999999 0.577593034423828 0.26994074999999995 Q 0.5838780344238281 0.2909954999999999 0.5964480344238281 0.3076507499999999 Q 0.6090180344238281 0.3243059999999999 0.6281872844238281 0.3340477499999999 Q 0.6473565344238281 0.3437894999999999 0.6737535344238281 0.3437894999999999 Q 0.7001505344238281 0.3437894999999999 0.7196340344238281 0.3337334999999999 Q 0.7391175344238281 0.32367749999999995 0.7513732844238281 0.3063937499999999 Q 0.7636290344238281 0.2891099999999999 0.769599784423828 0.2680552499999999 Q 0.7755705344238281 0.24700049999999993 0.7755705344238281 0.22500299999999993 Q 0.7755705344238281 0.20237699999999992 0.7692855344238281 0.18163649999999992 Q 0.7630005344238281 0.16089599999999993 0.750430534423828 0.14424074999999992 Q 0.737860534423828 0.1275854999999999 0.718377034423828 0.11815799999999993 Q 0.6988935344238281 0.10873049999999995 0.6731250344238281 0.10873049999999995 Q 0.6467280344238281 0.10873049999999995 0.6275587844238281 0.1187864999999999 Q 0.6083895344238281 0.12884249999999992 0.5958195344238281 0.14549774999999993 Q 0.5832495344238281 0.16215299999999994 0.5772787844238281 0.18320774999999995 Q 0.571308034423828 0.20426249999999993 0.571308034423828 0.22625999999999993 M 1.1526797409667968 0.4525199999999999 Q 1.1017712409667968 0.4525199999999999 1.0602902409667967 0.4333507499999999 Q 1.0188092409667968 0.4141814999999999 0.9889554909667968 0.3818137499999999 Q 0.9591017409667968 0.3494459999999999 0.9430749909667968 0.3089077499999999 Q 0.9270482409667968 0.2683694999999999 0.9270482409667968 0.22500299999999993 Q 0.9270482409667968 0.18037949999999991 0.9440177409667968 0.14015549999999993 Q 0.9609872409667968 0.09993149999999995 0.9914694909667968 0.06819224999999995 Q 1.0219517409667969 0.03645299999999996 1.0637469909667967 0.018226499999999923 Q 1.1055422409667968 -5.551115123125783e-17 1.1551937409667967 -5.551115123125783e-17 Q 1.2061022409667967 -5.551115123125783e-17 1.2475832409667968 0.019169249999999916 Q 1.2890642409667967 0.03833849999999994 1.3186037409667968 0.07102049999999993 Q 1.3481432409667968 0.10370249999999992 1.3641699909667968 0.14424074999999992 Q 1.3801967409667968 0.18477899999999992 1.3801967409667968 0.2275169999999999 Q 1.3801967409667968 0.2715119999999999 1.3635414909667967 0.3117359999999999 Q 1.3468862409667968 0.35195999999999994 1.3164039909667968 0.38369924999999994 Q 1.2859217409667967 0.4154384999999999 1.2444407409667968 0.4339792499999999 Q 1.2029597409667967 0.4525199999999999 1.1526797409667968 0.4525199999999999 M 1.0514912409667967 0.22625999999999993 Q 1.0514912409667967 0.2488859999999999 1.0577762409667968 0.26994074999999995 Q 1.0640612409667969 0.2909954999999999 1.0766312409667969 0.3076507499999999 Q 1.0892012409667968 0.3243059999999999 1.1083704909667969 0.3340477499999999 Q 1.1275397409667969 0.3437894999999999 1.1539367409667967 0.3437894999999999 Q 1.1803337409667969 0.3437894999999999 1.1998172409667966 0.3337334999999999 Q 1.2193007409667969 0.32367749999999995 1.2315564909667969 0.3063937499999999 Q 1.2438122409667969 0.2891099999999999 1.2497829909667968 0.2680552499999999 Q 1.2557537409667967 0.24700049999999993 1.2557537409667967 0.22500299999999993 Q 1.2557537409667967 0.20237699999999992 1.2494687409667968 0.18163649999999992 Q 1.2431837409667967 0.16089599999999993 1.2306137409667968 0.14424074999999992 Q 1.2180437409667968 0.1275854999999999 1.1985602409667968 0.11815799999999993 Q 1.1790767409667968 0.10873049999999995 1.1533082409667967 0.10873049999999995 Q 1.1269112409667967 0.10873049999999995 1.1077419909667967 0.1187864999999999 Q 1.088572740966797 0.12884249999999992 1.0760027409667967 0.14549774999999993 Q 1.0634327409667967 0.16215299999999994 1.0574619909667968 0.18320774999999995 Q 1.0514912409667967 0.20426249999999993 1.0514912409667967 0.22625999999999993 M 1.4317429475097656 0.4487489999999999 L 1.4317429475097656 0.0025139999999999607 L 1.5543004475097655 0.0025139999999999607 L 1.5543004475097655 0.17220899999999995 L 1.6900564475097655 0.0025139999999999607 L 1.8283264475097656 0.0025139999999999607 L 1.6661734475097656 0.20237699999999992 L 1.8396394475097655 0.4487489999999999 L 1.6988554475097655 0.4487489999999999 L 1.5882394475097654 0.2847104999999999 L 1.5543004475097655 0.31990649999999987 L 1.5543004475097655 0.4487489999999999 L 1.4317429475097656 0.4487489999999999 M 2.1828019819335935 0.3419039999999999 L 2.1828019819335935 0.4487489999999999 L 1.8647809819335937 0.4487489999999999 L 1.8647809819335937 0.0025139999999999607 L 2.177145481933594 0.0025139999999999607 L 2.177145481933594 0.10935899999999993 L 1.9873384819335935 0.10935899999999993 L 1.9873384819335935 0.17220899999999995 L 2.1494914819335937 0.17220899999999995 L 2.1494914819335937 0.2715119999999999 L 1.9873384819335935 0.2715119999999999 L 1.9873384819335935 0.3419039999999999 L 2.1828019819335935 0.3419039999999999 M 2.239357468505859 0.4487489999999999 L 2.239357468505859 0.0025139999999999607 L 2.444248468505859 0.0025139999999999607 Q 2.476930468505859 0.0025139999999999607 2.504584468505859 0.015712499999999963 Q 2.532238468505859 0.028910999999999965 2.552350468505859 0.05122274999999993 Q 2.572462468505859 0.07353449999999995 2.583461218505859 0.10118849999999996 Q 2.594459968505859 0.12884249999999992 2.594459968505859 0.1571249999999999 Q 2.594459968505859 0.18289349999999993 2.5869179685058588 0.20677649999999992 Q 2.579375968505859 0.23065949999999993 2.564920468505859 0.2504572499999999 Q 2.550464968505859 0.2702549999999999 2.530352968505859 0.2847104999999999 L 2.624627968505859 0.4487489999999999 L 2.490128968505859 0.4487489999999999 L 2.411566468505859 0.3117359999999999 L 2.361914968505859 0.3117359999999999 L 2.361914968505859 0.4487489999999999 L 2.239357468505859 0.4487489999999999 M 2.361914968505859 0.20489099999999993 L 2.439220468505859 0.20489099999999993 Q 2.446762468505859 0.20489099999999993 2.453675968505859 0.19923449999999993 Q 2.460589468505859 0.19357799999999992 2.465303218505859 0.18289349999999993 Q 2.470016968505859 0.17220899999999995 2.470016968505859 0.1571249999999999 Q 2.470016968505859 0.14141249999999994 2.464674718505859 0.13104224999999992 Q 2.459332468505859 0.12067199999999995 2.451476218505859 0.11501549999999994 Q 2.443619968505859 0.10935899999999993 2.436077968505859 0.10935899999999993 L 2.361914968505859 0.10935899999999993 L 2.361914968505859 0.20489099999999993" fill="#334155" fill-rule="nonzero"></path></g><g></g><g clip-path="url(#SvgjsClipPath1011)"><g clip-path="url(#SvgjsClipPath1008e9174a7c-cbb6-4869-bca0-e4e9d2d5f52b)"><path d=" M 3.493905358946596 0.31929839863084736 L 3.184965532579884 0.021427539305081497 C 3.1704271878096857 0.007384819924776383 3.151263006067152 -0.00004956092362041022 3.1311075735448313 0.00044606446627271253 C 3.110952141022511 0.0009416898561658827 3.0921183762065727 0.009202113021051199 3.0782408652895654 0.023905666254547108 L 2.8771821654562557 0.2365289585186961 L 2.763188325780838 0.12418720347625524 C 2.7486499810106397 0.10981406716935478 2.729485799268106 0.10221447785766022 2.709165158282488 0.10254489478425566 C 2.68884451729687 0.10287531171085107 2.6698455440176336 0.11130094333903415 2.6559680331006263 0.12600449657253002 L 2.470934554207194 0.32177652558031294 C 2.4499530793683855 0.3439144596622057 2.444501200079561 0.37497365076217454 2.4565614179002937 0.4030590895227848 C 2.468621635721026 0.4309793198200973 2.4950549898486596 0.44832620846635657 2.5254533470954375 0.44832620846635657 L 2.6962788981452666 0.44832620846635657 C 2.7167647475941825 0.44832620846635657 2.736589763189907 0.4397353683748757 2.75079769103351 0.42486660667808207 L 2.8780082077727442 0.2905521260170462 L 3.01595727462633 0.42668389977435695 C 3.0301652024699326 0.44056141069136434 3.0488337588225733 0.44832620846635657 3.068658774418298 0.44832620846635657 L 3.441699484544521 0.44832620846635657 C 3.4729238841077876 0.44832620846635657 3.499687655162016 0.43031848596690664 3.5112522475928554 0.4014070048898078 C 3.5229820484869925 0.37233031534941124 3.516373709955084 0.3409407073228469 3.493905358946596 0.31929839863084736 Z M 2.7233730861260907 0.39876366947704434 C 2.7164343306675867 0.40619805032544115 2.7065218228697243 0.41032826190788385 2.6962788981452666 0.41032826190788385 L 2.525618555558735 0.41032826190788385 C 2.5102541684720485 0.41032826190788385 2.497533116798125 0.4019026302797008 2.49142040365611 0.38785991089939564 C 2.485307690514095 0.3738171915190906 2.4879510259268582 0.35878322135899915 2.4985243675779114 0.3475490458547552 L 2.6833926380080455 0.15177701684697234 C 2.690331393466549 0.14450784446187318 2.6997482758745184 0.14037763287943053 2.7098259921356784 0.14004721595283512 C 2.709991200598976 0.14004721595283512 2.7103216175255715 0.14004721595283512 2.7104868259888693 0.14004721595283512 C 2.720399333786732 0.14004721595283512 2.7296510077314036 0.14384701060868244 2.736589763189907 0.1507857660671861 L 2.851079228255218 0.2637883549628177 L 2.7233730861260907 0.39876366947704434 Z M 3.4762280533737417 0.3871990770462048 C 3.471602216401406 0.398433252550449 3.460202832433864 0.41049347037118156 3.441699484544521 0.41049347037118156 L 3.0688239828815957 0.41049347037118156 C 3.0589114750837334 0.41049347037118156 3.049659801139062 0.4066936757153343 3.0427210456805582 0.3997549202568307 L 2.904111144973782 0.2631275211096269 L 3.10599588712358 0.050008603455584846 C 3.1129346425820836 0.04273943107048572 3.122186316526755 0.03860921948804307 3.1320988243246175 0.038444011024745345 C 3.14201133212248 0.03811359409814995 3.151593422993747 0.0419133887539972 3.1586973869155486 0.04885214421250092 L 3.467472004818963 0.346557795074969 C 3.4808538903460775 0.35927884674889243 3.4808538903460775 0.37596490154196077 3.4762280533737417 0.3871990770462048 Z" fill="#4977e3" transform="matrix(1,0,0,1,0,0)" fill-rule="nonzero"></path></g><g clip-path="url(#SvgjsClipPath1008e9174a7c-cbb6-4869-bca0-e4e9d2d5f52b)"><path d=" M 2.848435892842455 0.370182605326541 L 2.873051953873813 0.370182605326541 L 2.873051953873813 0.39479866635789934 L 2.848435892842455 0.39479866635789934 Z" fill="#334155" transform="matrix(1,0,0,1,0,0)" fill-rule="nonzero"></path></g><g clip-path="url(#SvgjsClipPath1008e9174a7c-cbb6-4869-bca0-e4e9d2d5f52b)"><path d=" M 2.8794950839424236 0.370182605326541 L 2.904111144973782 0.370182605326541 L 2.904111144973782 0.39479866635789934 L 2.8794950839424236 0.39479866635789934 Z" fill="#334155" transform="matrix(1,0,0,1,0,0)" fill-rule="nonzero"></path></g><g clip-path="url(#SvgjsClipPath1008e9174a7c-cbb6-4869-bca0-e4e9d2d5f52b)"><path d=" M 2.848435892842455 0.4005809625733192 L 2.873051953873813 0.4005809625733192 L 2.873051953873813 0.42519702360467754 L 2.848435892842455 0.42519702360467754 Z" fill="#334155" transform="matrix(1,0,0,1,0,0)" fill-rule="nonzero"></path></g><g clip-path="url(#SvgjsClipPath1008e9174a7c-cbb6-4869-bca0-e4e9d2d5f52b)"><path d=" M 2.8794950839424236 0.4005809625733192 L 2.904111144973782 0.4005809625733192 L 2.904111144973782 0.42519702360467754 L 2.8794950839424236 0.42519702360467754 Z" fill="#334155" transform="matrix(1,0,0,1,0,0)" fill-rule="nonzero"></path></g></g></g><defs><clipPath id="SvgjsClipPath1011"><path d=" M 2.450248796386719 0.00042279153364332966 h 1.0667143989156584 v 0.44790341693271324 h -1.0667143989156584 Z"></path></clipPath><clipPath id="SvgjsClipPath1008e9174a7c-cbb6-4869-bca0-e4e9d2d5f52b"><path d=" M 2.450248796386719 0.00042279153364332966 L 3.5169631953023774 0.00042279153364332966 L 3.5169631953023774 0.44832620846635657 L 2.450248796386719 0.44832620846635657 Z"></path></clipPath></defs></svg>